<svg width="64" height="64" viewBox="0 0 64 64" fill="none" xmlns="http://www.w3.org/2000/svg">
<g clip-path="url(#clip0_19_128)">
<circle cx="32" cy="32" r="32" fill="#9CEAF1"/>
<path d="M53.0967 14.0048C53.6463 14.0568 54.0498 14.544 53.998 15.0937C54.0031 15.0402 53.9935 15.0609 54.0186 15.2216C54.04 15.3589 54.0812 15.5617 54.1523 15.8495C54.4357 16.7111 54.7877 17.5325 55.0801 18.0536C55.1799 18.2156 55.222 18.2591 55.3477 18.4189C55.6889 18.853 55.6138 19.4819 55.1797 19.8232C54.7456 20.1644 54.1168 20.0891 53.7754 19.6552C53.6823 19.5368 53.548 19.3827 53.3652 19.0839L53.3477 19.0546C53.186 18.7688 53.02 18.4287 52.8574 18.0585C52.7178 18.1347 52.5579 18.1791 52.3877 18.1806C45.0349 18.241 37.9042 18.3001 34.1025 18.3593C30.3133 18.4183 29.8639 18.4757 29.4111 18.5038L29.3955 18.5048H29.3799C29.251 18.5089 29.1309 18.5106 29.0195 18.5136C29.0349 18.914 29.062 19.6071 29.1084 20.8075C29.2179 23.6386 29.4365 29.2654 30.0957 35.3388C30.7555 41.4176 31.8503 47.7775 32.4199 51.328C32.7346 53.2892 32.8765 54.3326 32.9424 54.9726C33.7659 54.9319 34.6584 54.8406 35.6348 54.6718C38.1501 54.237 41.1815 53.2993 43.4102 52.4179C45.6137 51.5464 46.9063 50.771 47.7656 50.1894C48.9664 49.3765 49.91 48.2301 50.9004 46.9218C51.6513 45.5707 51.7941 45.0353 51.8545 44.7177L51.8555 44.7148C51.9052 44.4588 51.957 44.1962 52.0117 43.8456C52.0969 43.3 52.6087 42.9265 53.1543 43.0116C53.6999 43.0968 54.0734 43.6086 53.9883 44.1542C53.9272 44.5459 53.8662 44.8444 53.8184 45.0907L53.8193 45.0917C53.7028 45.7044 53.4506 46.4615 52.6152 47.956L52.582 48.0165L52.54 48.0712C51.5327 49.4047 50.4064 50.8169 48.8867 51.8456C47.9131 52.5047 46.4915 53.3494 44.1455 54.2773C41.8245 55.1952 38.6579 56.1787 35.9746 56.6425C34.5179 56.8943 33.2276 56.9889 32.0674 56.996C32.0451 56.9975 32.0227 56.9999 32 56.9999C31.9757 56.9999 31.9516 56.9977 31.9277 56.996C30.9854 56.9959 30.1294 56.9404 29.3398 56.8554C27.5452 56.6621 26.0822 56.3403 24.3828 55.6054C22.8082 54.9245 20.8785 54.0109 19.6611 52.9589C18.4625 51.9231 17.6327 51.0746 17.0762 50.4267C16.542 49.8048 16.2113 49.3117 16.0771 48.9892C15.8652 48.4793 16.1063 47.8946 16.6162 47.6825C17.1261 47.4705 17.7107 47.7118 17.9229 48.2216C17.9192 48.2128 17.9532 48.2873 18.0723 48.4599C18.1837 48.6214 18.3523 48.8429 18.5928 49.123C19.074 49.6832 19.8314 50.4623 20.9688 51.4452C21.9229 52.2698 23.5787 53.0794 25.1768 53.7704C26.6498 54.4074 27.9084 54.6889 29.5537 54.8661C29.991 54.9132 30.4491 54.9501 30.9326 54.9736C30.864 54.3755 30.7256 53.3913 30.4453 51.6445C29.8807 48.1254 28.7742 41.698 28.1074 35.5546C27.44 29.406 27.22 23.7183 27.1104 20.8847C27.0018 18.0797 27 18.0325 27 17.9999C27 17.9579 27.0028 17.9165 27.0078 17.8759C26.969 17.7692 26.9463 17.6542 26.9463 17.5341C26.9467 16.9823 27.3945 16.5343 27.9463 16.5341C27.9496 16.5341 28.4029 16.5354 29.3154 16.5068C29.7896 16.4763 30.3246 16.4177 34.0713 16.3593C37.8487 16.3005 44.897 16.2414 52.1768 16.1816C52.116 15.9245 52.071 15.7096 52.043 15.5302C52.011 15.3253 51.988 15.1063 52.0068 14.9062C52.0587 14.3563 52.5468 13.953 53.0967 14.0048ZM36.6445 21.2919C37.1966 21.2921 37.6444 21.7399 37.6445 22.2919C37.6445 22.4095 37.6223 22.5221 37.585 22.6269C37.591 22.6331 37.5979 22.6385 37.6035 22.6445L37.6729 22.7245L37.7295 22.7909C37.8228 22.9065 38.0029 23.162 38.0635 23.497C38.1695 24.0843 38.2412 24.9074 38.2324 25.6718C38.228 26.0552 38.2026 26.4486 38.1445 26.8046C38.0911 27.1319 37.9926 27.5461 37.7695 27.8827C37.5856 28.1602 37.3295 28.5726 37.0615 28.8661C36.7941 29.1591 36.2476 29.6296 35.4697 29.4618C34.8982 29.3384 34.3466 28.9235 33.9395 28.1493C33.7138 27.7204 33.4118 27.1859 33.2578 26.6044C33.088 25.963 33.0946 25.2841 33.3652 24.5058C33.5038 24.1072 33.7687 23.4716 34.1387 22.8886C34.3242 22.5963 34.5532 22.2896 34.8271 22.0292C35.0971 21.7727 35.4595 21.5152 35.9131 21.4052C36.2015 21.3352 36.4629 21.2919 36.6445 21.2919ZM9.8125 13.8427C9.89944 13.2973 10.4116 12.9257 10.957 13.0126C11.5024 13.0996 11.8739 13.6118 11.7871 14.1571C11.7194 14.5818 11.5651 15.7517 11.3682 17.3945C11.7017 17.3793 12.1418 17.3597 12.7217 17.3329C15.1149 17.2226 19.8945 17.0016 24.8184 16.7743C25.3698 16.7491 25.8378 17.176 25.8633 17.7275C25.8886 18.2789 25.4616 18.7467 24.9102 18.7724C19.9868 18.9996 15.2078 19.2197 12.8145 19.33C12.0343 19.366 11.5056 19.3895 11.1465 19.4062C11.0688 20.3819 11.0452 20.8035 11.0107 21.2997C11 21.6151 11 22.057 11 22.54C11 23.0922 10.5523 23.54 10 23.54C9.44774 23.54 9.00004 23.0922 9 22.54C9 22.0559 9.00013 21.5565 9.01367 21.1933V21.1767L9.01465 21.1611C9.05135 20.6329 9.07697 20.1505 9.17676 18.9296L9.17871 18.914L9.18066 18.8974C9.47167 16.3667 9.71482 14.4555 9.8125 13.8427Z" fill="black"/>
</g>
<defs>
<clipPath id="clip0_19_128">
<rect width="64" height="64" fill="white"/>
</clipPath>
</defs>
</svg>
