<svg width="64" height="64" viewBox="0 0 64 64" fill="none" xmlns="http://www.w3.org/2000/svg">
<path d="M52.0967 12.005C52.6463 12.057 53.0498 12.5441 52.998 13.0938C53.0031 13.0404 52.9935 13.0611 53.0186 13.2218C53.04 13.359 53.0812 13.5619 53.1523 13.8497C53.4357 14.7112 53.7877 15.5327 54.0801 16.0538C54.1799 16.2157 54.222 16.2592 54.3477 16.419C54.6889 16.8532 54.6138 17.482 54.1797 17.8233C53.7456 18.1645 53.1168 18.0892 52.7754 17.6553C52.6823 17.537 52.548 17.3829 52.3652 17.0841L52.3477 17.0548C52.186 16.7689 52.02 16.4288 51.8574 16.0587C51.7178 16.1349 51.5579 16.1793 51.3877 16.1807C44.0349 16.2412 36.9042 16.3002 33.1025 16.3595C29.3133 16.4185 28.8639 16.4758 28.4111 16.504L28.3955 16.505H28.3799C28.251 16.509 28.1309 16.5107 28.0195 16.5137C28.0349 16.9141 28.062 17.6072 28.1084 18.8077C28.2179 21.6387 28.4365 27.2656 29.0957 33.3389C29.7555 39.4177 30.8503 45.7776 31.4199 49.3282C31.7346 51.2894 31.8765 52.3327 31.9424 52.9727C32.7659 52.932 33.6584 52.8407 34.6348 52.672C37.1501 52.2371 40.1815 51.2995 42.4102 50.418C44.6137 49.5466 45.9063 48.7712 46.7656 48.1895C47.9664 47.3767 48.91 46.2303 49.9004 44.922C50.6513 43.5709 50.7941 43.0355 50.8545 42.7178L50.8555 42.7149C50.9052 42.4589 50.957 42.1963 51.0117 41.8458C51.0969 41.3002 51.6087 40.9267 52.1543 41.0118C52.6999 41.097 53.0734 41.6087 52.9883 42.1544C52.9272 42.546 52.8662 42.8446 52.8184 43.0909L52.8193 43.0919C52.7028 43.7045 52.4506 44.4617 51.6152 45.9561L51.582 46.0167L51.54 46.0714C50.5327 47.4049 49.4064 48.817 47.8867 49.8458C46.9131 50.5049 45.4915 51.3496 43.1455 52.2774C40.8245 53.1954 37.6579 54.1789 34.9746 54.6427C33.5179 54.8944 32.2276 54.989 31.0674 54.9962C31.0451 54.9977 31.0227 55.0001 31 55.0001C30.9757 55.0001 30.9516 54.9979 30.9277 54.9962C29.9854 54.9961 29.1294 54.9406 28.3398 54.8555C26.5452 54.6622 25.0822 54.3404 23.3828 53.6055C21.8082 52.9246 19.8785 52.011 18.6611 50.9591C17.4625 49.9232 16.6327 49.0747 16.0762 48.4268C15.542 47.8049 15.2113 47.3119 15.0771 46.9893C14.8652 46.4794 15.1063 45.8948 15.6162 45.6827C16.1261 45.4707 16.7107 45.7119 16.9229 46.2218C16.9192 46.2129 16.9532 46.2875 17.0723 46.46C17.1837 46.6215 17.3523 46.8431 17.5928 47.1231C18.074 47.6834 18.8314 48.4625 19.9688 49.4454C20.9229 50.2699 22.5787 51.0795 24.1768 51.7706C25.6498 52.4076 26.9084 52.689 28.5537 52.8663C28.991 52.9134 29.4491 52.9503 29.9326 52.9737C29.864 52.3757 29.7256 51.3914 29.4453 49.6446C28.8807 46.1255 27.7742 39.6981 27.1074 33.5548C26.44 27.4061 26.22 21.7185 26.1104 18.8848C26.0018 16.0799 26 16.0327 26 16.0001C26 15.9581 26.0028 15.9167 26.0078 15.8761C25.969 15.7694 25.9463 15.6543 25.9463 15.5343C25.9467 14.9825 26.3945 14.5345 26.9463 14.5343C26.9496 14.5343 27.4029 14.5356 28.3154 14.5069C28.7896 14.4764 29.3246 14.4178 33.0713 14.3595C36.8487 14.3006 43.897 14.2416 51.1768 14.1817C51.116 13.9247 51.071 13.7098 51.043 13.5303C51.011 13.3254 50.988 13.1064 51.0068 12.9063C51.0587 12.3565 51.5468 11.9531 52.0967 12.005ZM35.6445 19.2921C36.1966 19.2922 36.6444 19.74 36.6445 20.2921C36.6445 20.4097 36.6223 20.5222 36.585 20.627C36.591 20.6332 36.5979 20.6387 36.6035 20.6446L36.6729 20.7247L36.7295 20.7911C36.8228 20.9066 37.0029 21.1622 37.0635 21.4971C37.1695 22.0845 37.2412 22.9075 37.2324 23.672C37.228 24.0553 37.2026 24.4488 37.1445 24.8048C37.0911 25.1321 36.9926 25.5462 36.7695 25.8829C36.5856 26.1603 36.3295 26.5727 36.0615 26.8663C35.7941 27.1592 35.2476 27.6298 34.4697 27.462C33.8982 27.3386 33.3466 26.9236 32.9395 26.1495C32.7138 25.7206 32.4118 25.186 32.2578 24.6046C32.088 23.9631 32.0946 23.2843 32.3652 22.5059C32.5038 22.1074 32.7687 21.4718 33.1387 20.8887C33.3242 20.5965 33.5532 20.2898 33.8271 20.0294C34.0971 19.7728 34.4595 19.5154 34.9131 19.4053C35.2015 19.3354 35.4629 19.2921 35.6445 19.2921ZM8.8125 11.8428C8.89944 11.2975 9.41163 10.9258 9.95703 11.0128C10.5024 11.0997 10.8739 11.612 10.7871 12.1573C10.7194 12.582 10.5651 13.7519 10.3682 15.3946C10.7017 15.3795 11.1418 15.3598 11.7217 15.3331C14.1149 15.2228 18.8945 15.0018 23.8184 14.7745C24.3698 14.7493 24.8378 15.1761 24.8633 15.7276C24.8886 16.2791 24.4616 16.7469 23.9102 16.7725C18.9868 16.9998 14.2078 17.2198 11.8145 17.3302C11.0343 17.3661 10.5056 17.3897 10.1465 17.4063C10.0688 18.3821 10.0452 18.8037 10.0107 19.2999C10 19.6153 10 20.0571 10 20.5401C9.99996 21.0924 9.55226 21.5401 9 21.5401C8.44774 21.5401 8.00004 21.0924 8 20.5401C8 20.056 8.00013 19.5567 8.01367 19.1934V19.1768L8.01465 19.1612C8.05135 18.6331 8.07697 18.1506 8.17676 16.9298L8.17871 16.9141L8.18066 16.8975C8.47167 14.3669 8.71482 12.4557 8.8125 11.8428Z" fill="black"/>
</svg>
